<?xml version="1.0" standalone="no"?>
<!DOCTYPE svg PUBLIC "-//W3C//DTD SVG 20010904//EN"
 "http://www.w3.org/TR/2001/REC-SVG-20010904/DTD/svg10.dtd">
<svg version="1.0" xmlns="http://www.w3.org/2000/svg"
 width="310.000000pt" height="194.000000pt" viewBox="0 0 310.000000 194.000000"
 preserveAspectRatio="xMidYMid meet">

<g transform="translate(0.000000,194.000000) scale(0.100000,-0.100000)"
fill="#000000" stroke="none">
<path d="M350 1691 c-118 -42 -170 -141 -177 -341 -9 -228 24 -338 134 -440
70 -65 122 -95 226 -129 109 -36 147 -90 147 -208 l0 -53 -75 0 -75 0 0 75 0
75 -181 0 -182 0 5 -142 c6 -171 26 -238 92 -305 66 -66 114 -75 369 -71 149
2 219 7 235 16 19 11 22 10 22 -3 0 -13 25 -15 179 -15 203 0 183 -10 197 98
l7 52 123 0 123 0 12 -75 12 -75 308 0 309 0 0 595 0 595 60 0 60 0 0 -595 0
-595 325 0 325 0 0 185 0 185 -145 0 -145 0 0 595 0 595 -729 0 c-686 0 -730
-1 -735 -17 -2 -10 -39 -205 -81 -433 -42 -228 -78 -422 -81 -430 -4 -10 -12
-3 -26 25 -47 89 -169 178 -309 224 -106 35 -149 96 -149 214 l0 47 75 0 75 0
0 -75 0 -75 181 0 181 0 -4 148 c-6 166 -20 217 -77 283 -66 78 -87 84 -336
87 -196 2 -226 0 -275 -17z m1449 -653 c-1 -167 -3 -296 -5 -288 -10 39 -104
556 -104 572 0 15 9 18 55 18 l55 0 -1 -302z m-369 -143 c16 -109 30 -204 30
-212 0 -9 -17 -13 -66 -13 l-66 0 5 28 c3 15 18 111 33 214 15 103 29 186 30
185 2 -2 17 -92 34 -202z"/>
</g>
</svg>
