<?xml version="1.0" encoding="UTF-8" standalone="no"?>
<svg
   xmlns:dc="http://purl.org/dc/elements/1.1/"
   xmlns:cc="http://creativecommons.org/ns#"
   xmlns:rdf="http://www.w3.org/1999/02/22-rdf-syntax-ns#"
   xmlns:svg="http://www.w3.org/2000/svg"
   xmlns="http://www.w3.org/2000/svg"
   viewBox="0 0 302.36267 75.59053"
   height="75.59053"
   width="302.36267"
   xml:space="preserve"
   id="svg2"
   version="1.1"><metadata
     id="metadata8"><rdf:RDF><cc:Work
         rdf:about=""><dc:format>image/svg+xml</dc:format><dc:type
           rdf:resource="http://purl.org/dc/dcmitype/StillImage" /></cc:Work></rdf:RDF></metadata><defs
     id="defs6"><clipPath
       id="clipPath18"
       clipPathUnits="userSpaceOnUse"><path
         id="path16"
         d="M 0,0 H 226.771 V 56.693 H 0 Z" /></clipPath></defs><g
     transform="matrix(1.3333333,0,0,-1.3333333,0,75.590533)"
     id="g10"><g
       id="g12"><g
         clip-path="url(#clipPath18)"
         id="g14"><g
           transform="scale(0.5142214,-0.2267717)"
           id="g20"><g
             transform="translate(139.3095,-166.6667)"
             id="g22"><path
               id="path24"
               style="fill:#000000;fill-opacity:1;fill-rule:nonzero;stroke:none"
               d="m 0,0 h -58.046 v -23.809 h -23.218 v 11.904 c 0,15.873 7.739,25.794 23.218,29.762 15.479,3.969 29.023,11.905 40.632,23.81 C -5.805,53.572 0,71.429 0,95.238 v 11.905 c 0,39.683 -15.479,59.524 -46.437,59.524 h -46.436 c -30.958,0 -46.437,-19.841 -46.437,-59.524 V 83.334 h 58.046 v 23.809 h 23.218 V 95.238 c 0,-15.873 -7.739,-25.793 -23.218,-29.761 -15.479,-3.969 -29.023,-11.905 -40.632,-23.81 -11.609,-11.905 -17.414,-29.762 -17.414,-53.572 v -11.904 c 0,-39.683 15.479,-59.524 46.437,-59.524 h 46.436 C -15.479,-83.333 0,-63.492 0,-23.809 Z" /></g></g><g
           transform="scale(0.5142214,-0.2267717)"
           id="g26"><g
             transform="translate(206.6706,-83.333)"
             id="g28"><path
               id="path30"
               style="fill:#000000;fill-opacity:1;fill-rule:nonzero;stroke:none"
               d="M 0,0 -10.68,-71.429 -21.361,0 Z M 70.584,83.333 H 12.538 L 8.939,59.523 H -30.3 l -3.599,23.81 h -58.046 l 46.437,-250 h 69.655 z" /></g></g><g
           transform="scale(0.5142214,-0.2267717)"
           id="g32"><g
             transform="translate(318.6103,-190.4762)"
             id="g34"><path
               id="path36"
               style="fill:#000000;fill-opacity:1;fill-rule:nonzero;stroke:none"
               d="M 0,0 V 190.476 H -58.045 V 0 H -92.873 V -59.524 H 34.828 l 0,59.524 z" /></g></g><g
           transform="scale(0.5142214,-0.2267717)"
           id="g38"><g
             transform="translate(336.5166,-250)"
             id="g40"><path
               id="path42"
               style="fill:#000000;fill-opacity:1;fill-rule:nonzero;stroke:none"
               d="m 0,0 h 58.046 v 190.476 h 46.437 V 250 H 0 Z" /></g></g></g></g></g></svg>