<?xml version="1.0" standalone="no"?>
<!DOCTYPE svg PUBLIC "-//W3C//DTD SVG 20010904//EN"
 "http://www.w3.org/TR/2001/REC-SVG-20010904/DTD/svg10.dtd">
<svg version="1.0" xmlns="http://www.w3.org/2000/svg"
 width="1260.000000pt" height="238.000000pt" viewBox="0 0 1260.000000 238.000000"
 preserveAspectRatio="xMidYMid meet">

<g transform="translate(0.000000,238.000000) scale(0.100000,-0.100000)"
fill="#000000" stroke="none">
<path d="M1020 2373 c-117 -7 -329 -34 -420 -53 -333 -70 -523 -195 -581 -383
-18 -59 -21 -87 -17 -205 3 -130 5 -141 36 -206 54 -115 185 -226 352 -296
284 -119 750 -219 1240 -265 295 -28 444 -61 564 -123 96 -50 126 -97 126
-199 l0 -73 -330 0 -330 0 0 110 0 110 -830 0 -830 0 0 -144 c0 -116 4 -156
20 -207 71 -224 321 -352 812 -417 119 -15 240 -17 1158 -17 919 0 1039 2
1158 18 161 21 159 20 144 5 -7 -7 -12 -16 -12 -20 0 -4 373 -8 828 -8 l829 0
53 115 53 115 557 0 557 0 51 -113 51 -112 1423 0 1423 0 0 903 0 902 253 0
252 0 0 -905 0 -905 1495 0 1495 0 0 285 0 285 -660 2 -660 3 -3 900 -2 900
-3336 3 -3336 2 -384 -689 -384 -688 -50 38 c-218 165 -776 311 -1430 374
-286 28 -419 54 -533 106 -125 56 -162 105 -162 217 l0 72 330 0 330 0 0 -110
0 -110 830 0 830 0 0 144 c0 116 -4 156 -20 207 -58 184 -254 312 -582 379
-252 52 -275 53 -1323 55 -539 1 -1005 0 -1035 -2z m6420 -1030 c0 -258 -4
-463 -9 -458 -10 12 -511 913 -511 920 0 3 117 5 260 5 l260 0 0 -467z m-1693
-201 c78 -174 145 -325 148 -334 7 -17 -11 -18 -295 -18 -284 0 -302 1 -296
18 18 49 292 652 296 652 3 0 69 -143 147 -318z"/>
</g>
</svg>
